<svg class="block h-8 w-auto" viewBox="0 0 1440 227" fill="none" xmlns="http://www.w3.org/2000/svg">
<g clip-path="url(#clip0)">
<g filter="url(#filter0_d)">
<path d="M331.5 172.36C324.78 172.36 318.76 171.52 313.44 169.84C308.26 168.16 303.71 165.99 299.79 163.33C296.01 160.53 292.79 157.38 290.13 153.88C287.47 150.24 285.44 146.6 284.04 142.96L308.61 132.46C310.99 137.78 314.14 141.77 318.06 144.43C322.12 146.95 326.6 148.21 331.5 148.21C336.54 148.21 340.53 147.3 343.47 145.48C346.41 143.66 347.88 141.49 347.88 138.97C347.88 136.17 346.62 133.93 344.1 132.25C341.72 130.43 337.52 128.82 331.5 127.42L317.01 124.27C313.79 123.57 310.43 122.45 306.93 120.91C303.57 119.37 300.49 117.41 297.69 115.03C294.89 112.65 292.58 109.78 290.76 106.42C288.94 103.06 288.03 99.14 288.03 94.66C288.03 89.62 289.08 85.14 291.18 81.22C293.42 77.3 296.43 74.01 300.21 71.35C303.99 68.55 308.4 66.45 313.44 65.05C318.62 63.51 324.15 62.74 330.03 62.74C339.83 62.74 348.58 64.7 356.28 68.62C363.98 72.4 369.65 78.49 373.29 86.89L349.56 96.55C347.6 92.49 344.73 89.55 340.95 87.73C337.17 85.91 333.39 85 329.61 85C325.69 85 322.26 85.84 319.32 87.52C316.38 89.06 314.91 91.09 314.91 93.61C314.91 95.99 316.1 97.88 318.48 99.28C321 100.68 324.36 101.94 328.56 103.06L344.31 106.84C354.81 109.36 362.58 113.42 367.62 119.02C372.8 124.48 375.39 130.99 375.39 138.55C375.39 143.03 374.34 147.3 372.24 151.36C370.14 155.42 367.13 159.06 363.21 162.28C359.43 165.36 354.81 167.81 349.35 169.63C344.03 171.45 338.08 172.36 331.5 172.36ZM480.239 144.22C475.479 152.62 469.039 159.41 460.919 164.59C452.939 169.77 443.139 172.36 431.519 172.36C423.679 172.36 416.399 171.03 409.679 168.37C403.099 165.57 397.359 161.72 392.459 156.82C387.559 151.92 383.709 146.18 380.909 139.6C378.249 132.88 376.919 125.53 376.919 117.55C376.919 110.13 378.249 103.13 380.909 96.55C383.569 89.83 387.279 84.02 392.039 79.12C396.799 74.08 402.399 70.09 408.839 67.15C415.419 64.21 422.629 62.74 430.469 62.74C438.729 62.74 446.079 64.14 452.519 66.94C458.959 69.6 464.349 73.38 468.689 78.28C473.029 83.04 476.319 88.71 478.559 95.29C480.799 101.87 481.919 109.01 481.919 116.71C481.919 117.69 481.919 118.53 481.919 119.23C481.779 120.07 481.709 120.84 481.709 121.54C481.569 122.24 481.499 123.01 481.499 123.85H404.009C404.569 128.05 405.689 131.69 407.369 134.77C409.189 137.71 411.359 140.23 413.879 142.33C416.539 144.29 419.409 145.76 422.489 146.74C425.569 147.58 428.719 148 431.939 148C438.239 148 443.419 146.6 447.479 143.8C451.679 140.86 454.969 137.22 457.349 132.88L480.239 144.22ZM455.249 104.32C455.109 102.5 454.479 100.47 453.359 98.23C452.379 95.99 450.839 93.89 448.739 91.93C446.779 89.97 444.259 88.36 441.179 87.1C438.239 85.84 434.669 85.21 430.469 85.21C424.589 85.21 419.409 86.89 414.929 90.25C410.449 93.61 407.299 98.3 405.479 104.32H455.249ZM538.734 62.74C546.714 62.74 553.994 64.14 560.574 66.94C567.294 69.6 573.034 73.38 577.794 78.28C582.694 83.04 586.474 88.78 589.134 95.5C591.934 102.22 593.334 109.57 593.334 117.55C593.334 125.53 591.934 132.88 589.134 139.6C586.474 146.32 582.694 152.13 577.794 157.03C573.034 161.79 567.294 165.57 560.574 168.37C553.994 171.03 546.714 172.36 538.734 172.36C530.754 172.36 523.404 171.03 516.684 168.37C510.104 165.57 504.364 161.79 499.464 157.03C494.704 152.13 490.924 146.32 488.124 139.6C485.464 132.88 484.134 125.53 484.134 117.55C484.134 109.57 485.464 102.22 488.124 95.5C490.924 88.78 494.704 83.04 499.464 78.28C504.364 73.38 510.104 69.6 516.684 66.94C523.404 64.14 530.754 62.74 538.734 62.74ZM538.734 146.95C542.234 146.95 545.594 146.32 548.814 145.06C552.174 143.66 555.114 141.7 557.634 139.18C560.154 136.66 562.114 133.58 563.514 129.94C565.054 126.3 565.824 122.17 565.824 117.55C565.824 112.93 565.054 108.8 563.514 105.16C562.114 101.52 560.154 98.44 557.634 95.92C555.114 93.4 552.174 91.51 548.814 90.25C545.594 88.85 542.234 88.15 538.734 88.15C535.094 88.15 531.664 88.85 528.444 90.25C525.224 91.51 522.354 93.4 519.834 95.92C517.314 98.44 515.284 101.52 513.744 105.16C512.344 108.8 511.644 112.93 511.644 117.55C511.644 122.17 512.344 126.3 513.744 129.94C515.284 133.58 517.314 136.66 519.834 139.18C522.354 141.7 525.224 143.66 528.444 145.06C531.664 146.32 535.094 146.95 538.734 146.95Z" fill="#283F6F"></path>
<path d="M331.5 172.36C324.78 172.36 318.76 171.52 313.44 169.84C308.26 168.16 303.71 165.99 299.79 163.33C296.01 160.53 292.79 157.38 290.13 153.88C287.47 150.24 285.44 146.6 284.04 142.96L308.61 132.46C310.99 137.78 314.14 141.77 318.06 144.43C322.12 146.95 326.6 148.21 331.5 148.21C336.54 148.21 340.53 147.3 343.47 145.48C346.41 143.66 347.88 141.49 347.88 138.97C347.88 136.17 346.62 133.93 344.1 132.25C341.72 130.43 337.52 128.82 331.5 127.42L317.01 124.27C313.79 123.57 310.43 122.45 306.93 120.91C303.57 119.37 300.49 117.41 297.69 115.03C294.89 112.65 292.58 109.78 290.76 106.42C288.94 103.06 288.03 99.14 288.03 94.66C288.03 89.62 289.08 85.14 291.18 81.22C293.42 77.3 296.43 74.01 300.21 71.35C303.99 68.55 308.4 66.45 313.44 65.05C318.62 63.51 324.15 62.74 330.03 62.74C339.83 62.74 348.58 64.7 356.28 68.62C363.98 72.4 369.65 78.49 373.29 86.89L349.56 96.55C347.6 92.49 344.73 89.55 340.95 87.73C337.17 85.91 333.39 85 329.61 85C325.69 85 322.26 85.84 319.32 87.52C316.38 89.06 314.91 91.09 314.91 93.61C314.91 95.99 316.1 97.88 318.48 99.28C321 100.68 324.36 101.94 328.56 103.06L344.31 106.84C354.81 109.36 362.58 113.42 367.62 119.02C372.8 124.48 375.39 130.99 375.39 138.55C375.39 143.03 374.34 147.3 372.24 151.36C370.14 155.42 367.13 159.06 363.21 162.28C359.43 165.36 354.81 167.81 349.35 169.63C344.03 171.45 338.08 172.36 331.5 172.36ZM480.239 144.22C475.479 152.62 469.039 159.41 460.919 164.59C452.939 169.77 443.139 172.36 431.519 172.36C423.679 172.36 416.399 171.03 409.679 168.37C403.099 165.57 397.359 161.72 392.459 156.82C387.559 151.92 383.709 146.18 380.909 139.6C378.249 132.88 376.919 125.53 376.919 117.55C376.919 110.13 378.249 103.13 380.909 96.55C383.569 89.83 387.279 84.02 392.039 79.12C396.799 74.08 402.399 70.09 408.839 67.15C415.419 64.21 422.629 62.74 430.469 62.74C438.729 62.74 446.079 64.14 452.519 66.94C458.959 69.6 464.349 73.38 468.689 78.28C473.029 83.04 476.319 88.71 478.559 95.29C480.799 101.87 481.919 109.01 481.919 116.71C481.919 117.69 481.919 118.53 481.919 119.23C481.779 120.07 481.709 120.84 481.709 121.54C481.569 122.24 481.499 123.01 481.499 123.85H404.009C404.569 128.05 405.689 131.69 407.369 134.77C409.189 137.71 411.359 140.23 413.879 142.33C416.539 144.29 419.409 145.76 422.489 146.74C425.569 147.58 428.719 148 431.939 148C438.239 148 443.419 146.6 447.479 143.8C451.679 140.86 454.969 137.22 457.349 132.88L480.239 144.22ZM455.249 104.32C455.109 102.5 454.479 100.47 453.359 98.23C452.379 95.99 450.839 93.89 448.739 91.93C446.779 89.97 444.259 88.36 441.179 87.1C438.239 85.84 434.669 85.21 430.469 85.21C424.589 85.21 419.409 86.89 414.929 90.25C410.449 93.61 407.299 98.3 405.479 104.32H455.249ZM538.734 62.74C546.714 62.74 553.994 64.14 560.574 66.94C567.294 69.6 573.034 73.38 577.794 78.28C582.694 83.04 586.474 88.78 589.134 95.5C591.934 102.22 593.334 109.57 593.334 117.55C593.334 125.53 591.934 132.88 589.134 139.6C586.474 146.32 582.694 152.13 577.794 157.03C573.034 161.79 567.294 165.57 560.574 168.37C553.994 171.03 546.714 172.36 538.734 172.36C530.754 172.36 523.404 171.03 516.684 168.37C510.104 165.57 504.364 161.79 499.464 157.03C494.704 152.13 490.924 146.32 488.124 139.6C485.464 132.88 484.134 125.53 484.134 117.55C484.134 109.57 485.464 102.22 488.124 95.5C490.924 88.78 494.704 83.04 499.464 78.28C504.364 73.38 510.104 69.6 516.684 66.94C523.404 64.14 530.754 62.74 538.734 62.74ZM538.734 146.95C542.234 146.95 545.594 146.32 548.814 145.06C552.174 143.66 555.114 141.7 557.634 139.18C560.154 136.66 562.114 133.58 563.514 129.94C565.054 126.3 565.824 122.17 565.824 117.55C565.824 112.93 565.054 108.8 563.514 105.16C562.114 101.52 560.154 98.44 557.634 95.92C555.114 93.4 552.174 91.51 548.814 90.25C545.594 88.85 542.234 88.15 538.734 88.15C535.094 88.15 531.664 88.85 528.444 90.25C525.224 91.51 522.354 93.4 519.834 95.92C517.314 98.44 515.284 101.52 513.744 105.16C512.344 108.8 511.644 112.93 511.644 117.55C511.644 122.17 512.344 126.3 513.744 129.94C515.284 133.58 517.314 136.66 519.834 139.18C522.354 141.7 525.224 143.66 528.444 145.06C531.664 146.32 535.094 146.95 538.734 146.95Z" fill="url(#paint0_linear)"></path>
<path d="M709.41 142.75C704.93 151.43 698.63 158.57 690.51 164.17C682.53 169.63 672.52 172.36 660.48 172.36C652.5 172.36 645.15 171.03 638.43 168.37C631.85 165.57 626.11 161.72 621.21 156.82C616.45 151.92 612.67 146.18 609.87 139.6C607.21 132.88 605.88 125.53 605.88 117.55C605.88 109.57 607.21 102.22 609.87 95.5C612.67 88.78 616.45 83.04 621.21 78.28C626.11 73.38 631.85 69.6 638.43 66.94C645.15 64.14 652.5 62.74 660.48 62.74C672.38 62.74 682.39 65.47 690.51 70.93C698.63 76.39 704.58 83.46 708.36 92.14L683.16 102.64C680.78 97.88 677.7 94.31 673.92 91.93C670.28 89.41 665.66 88.15 660.06 88.15C656.42 88.15 652.99 88.85 649.77 90.25C646.55 91.65 643.68 93.61 641.16 96.13C638.78 98.65 636.89 101.73 635.49 105.37C634.09 109.01 633.39 113.07 633.39 117.55C633.39 122.03 634.09 126.09 635.49 129.73C636.89 133.37 638.78 136.45 641.16 138.97C643.68 141.49 646.55 143.45 649.77 144.85C652.99 146.25 656.42 146.95 660.06 146.95C665.8 146.95 670.63 145.69 674.55 143.17C678.61 140.51 681.83 136.73 684.21 131.83L709.41 142.75ZM717.794 18.64H745.304V60.85L743.624 79.54H745.304C748.244 74.64 752.444 70.65 757.904 67.57C763.504 64.35 769.734 62.74 776.594 62.74C789.894 62.74 799.694 66.66 805.994 74.5C812.434 82.34 815.654 93.05 815.654 106.63V169H788.144V109.99C788.144 102.85 786.464 97.46 783.104 93.82C779.744 90.04 775.054 88.15 769.034 88.15C765.254 88.15 761.894 88.99 758.954 90.67C756.014 92.21 753.494 94.38 751.394 97.18C749.434 99.98 747.894 103.27 746.774 107.05C745.794 110.69 745.304 114.61 745.304 118.81V169H717.794V18.64ZM927.42 144.22C922.66 152.62 916.22 159.41 908.1 164.59C900.12 169.77 890.32 172.36 878.7 172.36C870.86 172.36 863.58 171.03 856.86 168.37C850.28 165.57 844.54 161.72 839.64 156.82C834.74 151.92 830.89 146.18 828.09 139.6C825.43 132.88 824.1 125.53 824.1 117.55C824.1 110.13 825.43 103.13 828.09 96.55C830.75 89.83 834.46 84.02 839.22 79.12C843.98 74.08 849.58 70.09 856.02 67.15C862.6 64.21 869.81 62.74 877.65 62.74C885.91 62.74 893.26 64.14 899.7 66.94C906.14 69.6 911.53 73.38 915.87 78.28C920.21 83.04 923.5 88.71 925.74 95.29C927.98 101.87 929.1 109.01 929.1 116.71C929.1 117.69 929.1 118.53 929.1 119.23C928.96 120.07 928.89 120.84 928.89 121.54C928.75 122.24 928.68 123.01 928.68 123.85H851.19C851.75 128.05 852.87 131.69 854.55 134.77C856.37 137.71 858.54 140.23 861.06 142.33C863.72 144.29 866.59 145.76 869.67 146.74C872.75 147.58 875.9 148 879.12 148C885.42 148 890.6 146.6 894.66 143.8C898.86 140.86 902.15 137.22 904.53 132.88L927.42 144.22ZM902.43 104.32C902.29 102.5 901.66 100.47 900.54 98.23C899.56 95.99 898.02 93.89 895.92 91.93C893.96 89.97 891.44 88.36 888.36 87.1C885.42 85.84 881.85 85.21 877.65 85.21C871.77 85.21 866.59 86.89 862.11 90.25C857.63 93.61 854.48 98.3 852.66 104.32H902.43ZM1036.94 142.75C1032.46 151.43 1026.16 158.57 1018.04 164.17C1010.06 169.63 1000.05 172.36 988.014 172.36C980.034 172.36 972.684 171.03 965.964 168.37C959.384 165.57 953.644 161.72 948.744 156.82C943.984 151.92 940.204 146.18 937.404 139.6C934.744 132.88 933.414 125.53 933.414 117.55C933.414 109.57 934.744 102.22 937.404 95.5C940.204 88.78 943.984 83.04 948.744 78.28C953.644 73.38 959.384 69.6 965.964 66.94C972.684 64.14 980.034 62.74 988.014 62.74C999.914 62.74 1009.92 65.47 1018.04 70.93C1026.16 76.39 1032.11 83.46 1035.89 92.14L1010.69 102.64C1008.31 97.88 1005.23 94.31 1001.45 91.93C997.814 89.41 993.194 88.15 987.594 88.15C983.954 88.15 980.524 88.85 977.304 90.25C974.084 91.65 971.214 93.61 968.694 96.13C966.314 98.65 964.424 101.73 963.024 105.37C961.624 109.01 960.924 113.07 960.924 117.55C960.924 122.03 961.624 126.09 963.024 129.73C964.424 133.37 966.314 136.45 968.694 138.97C971.214 141.49 974.084 143.45 977.304 144.85C980.524 146.25 983.954 146.95 987.594 146.95C993.334 146.95 998.164 145.69 1002.08 143.17C1006.14 140.51 1009.36 136.73 1011.74 131.83L1036.94 142.75ZM1045.33 18.64H1072.84V100.54H1074.1L1108.54 66.1H1142.56V67.78L1104.34 104.95L1145.71 167.32V169H1113.16L1085.02 123.85L1072.84 135.82V169H1045.33V18.64ZM1148.29 169V18.64H1175.8V169H1148.29ZM1206.28 51.19C1203.9 51.19 1201.59 50.77 1199.35 49.93C1197.25 48.95 1195.36 47.69 1193.68 46.15C1192.14 44.47 1190.88 42.58 1189.9 40.48C1189.06 38.38 1188.64 36.07 1188.64 33.55C1188.64 31.03 1189.06 28.72 1189.9 26.62C1190.88 24.52 1192.14 22.7 1193.68 21.16C1195.36 19.48 1197.25 18.22 1199.35 17.38C1201.59 16.4 1203.9 15.91 1206.28 15.91C1211.18 15.91 1215.38 17.66 1218.88 21.16C1222.38 24.52 1224.13 28.65 1224.13 33.55C1224.13 38.45 1222.38 42.65 1218.88 46.15C1215.38 49.51 1211.18 51.19 1206.28 51.19ZM1192.63 169V66.1H1220.14V169H1192.63ZM1277.64 172.36C1270.92 172.36 1264.9 171.52 1259.58 169.84C1254.4 168.16 1249.85 165.99 1245.93 163.33C1242.15 160.53 1238.93 157.38 1236.27 153.88C1233.61 150.24 1231.58 146.6 1230.18 142.96L1254.75 132.46C1257.13 137.78 1260.28 141.77 1264.2 144.43C1268.26 146.95 1272.74 148.21 1277.64 148.21C1282.68 148.21 1286.67 147.3 1289.61 145.48C1292.55 143.66 1294.02 141.49 1294.02 138.97C1294.02 136.17 1292.76 133.93 1290.24 132.25C1287.86 130.43 1283.66 128.82 1277.64 127.42L1263.15 124.27C1259.93 123.57 1256.57 122.45 1253.07 120.91C1249.71 119.37 1246.63 117.41 1243.83 115.03C1241.03 112.65 1238.72 109.78 1236.9 106.42C1235.08 103.06 1234.17 99.14 1234.17 94.66C1234.17 89.62 1235.22 85.14 1237.32 81.22C1239.56 77.3 1242.57 74.01 1246.35 71.35C1250.13 68.55 1254.54 66.45 1259.58 65.05C1264.76 63.51 1270.29 62.74 1276.17 62.74C1285.97 62.74 1294.72 64.7 1302.42 68.62C1310.12 72.4 1315.79 78.49 1319.43 86.89L1295.7 96.55C1293.74 92.49 1290.87 89.55 1287.09 87.73C1283.31 85.91 1279.53 85 1275.75 85C1271.83 85 1268.4 85.84 1265.46 87.52C1262.52 89.06 1261.05 91.09 1261.05 93.61C1261.05 95.99 1262.24 97.88 1264.62 99.28C1267.14 100.68 1270.5 101.94 1274.7 103.06L1290.45 106.84C1300.95 109.36 1308.72 113.42 1313.76 119.02C1318.94 124.48 1321.53 130.99 1321.53 138.55C1321.53 143.03 1320.48 147.3 1318.38 151.36C1316.28 155.42 1313.27 159.06 1309.35 162.28C1305.57 165.36 1300.95 167.81 1295.49 169.63C1290.17 171.45 1284.22 172.36 1277.64 172.36ZM1340.32 89.62H1322.26V66.1H1340.32V34.6H1367.83V66.1H1393.03V89.62H1367.83V129.52C1367.83 131.9 1368.04 134.14 1368.46 136.24C1369.02 138.2 1370 139.88 1371.4 141.28C1373.36 143.52 1376.16 144.64 1379.8 144.64C1382.18 144.64 1384.07 144.43 1385.47 144.01C1386.87 143.45 1388.2 142.75 1389.46 141.91L1397.23 166.06C1394.01 167.6 1390.51 168.72 1386.73 169.42C1383.09 170.26 1379.03 170.68 1374.55 170.68C1369.37 170.68 1364.68 169.91 1360.48 168.37C1356.42 166.69 1352.99 164.45 1350.19 161.65C1343.61 155.35 1340.32 146.39 1340.32 134.77V89.62Z" fill="#628EFB"></path>
<path d="M709.41 142.75C704.93 151.43 698.63 158.57 690.51 164.17C682.53 169.63 672.52 172.36 660.48 172.36C652.5 172.36 645.15 171.03 638.43 168.37C631.85 165.57 626.11 161.72 621.21 156.82C616.45 151.92 612.67 146.18 609.87 139.6C607.21 132.88 605.88 125.53 605.88 117.55C605.88 109.57 607.21 102.22 609.87 95.5C612.67 88.78 616.45 83.04 621.21 78.28C626.11 73.38 631.85 69.6 638.43 66.94C645.15 64.14 652.5 62.74 660.48 62.74C672.38 62.74 682.39 65.47 690.51 70.93C698.63 76.39 704.58 83.46 708.36 92.14L683.16 102.64C680.78 97.88 677.7 94.31 673.92 91.93C670.28 89.41 665.66 88.15 660.06 88.15C656.42 88.15 652.99 88.85 649.77 90.25C646.55 91.65 643.68 93.61 641.16 96.13C638.78 98.65 636.89 101.73 635.49 105.37C634.09 109.01 633.39 113.07 633.39 117.55C633.39 122.03 634.09 126.09 635.49 129.73C636.89 133.37 638.78 136.45 641.16 138.97C643.68 141.49 646.55 143.45 649.77 144.85C652.99 146.25 656.42 146.95 660.06 146.95C665.8 146.95 670.63 145.69 674.55 143.17C678.61 140.51 681.83 136.73 684.21 131.83L709.41 142.75ZM717.794 18.64H745.304V60.85L743.624 79.54H745.304C748.244 74.64 752.444 70.65 757.904 67.57C763.504 64.35 769.734 62.74 776.594 62.74C789.894 62.74 799.694 66.66 805.994 74.5C812.434 82.34 815.654 93.05 815.654 106.63V169H788.144V109.99C788.144 102.85 786.464 97.46 783.104 93.82C779.744 90.04 775.054 88.15 769.034 88.15C765.254 88.15 761.894 88.99 758.954 90.67C756.014 92.21 753.494 94.38 751.394 97.18C749.434 99.98 747.894 103.27 746.774 107.05C745.794 110.69 745.304 114.61 745.304 118.81V169H717.794V18.64ZM927.42 144.22C922.66 152.62 916.22 159.41 908.1 164.59C900.12 169.77 890.32 172.36 878.7 172.36C870.86 172.36 863.58 171.03 856.86 168.37C850.28 165.57 844.54 161.72 839.64 156.82C834.74 151.92 830.89 146.18 828.09 139.6C825.43 132.88 824.1 125.53 824.1 117.55C824.1 110.13 825.43 103.13 828.09 96.55C830.75 89.83 834.46 84.02 839.22 79.12C843.98 74.08 849.58 70.09 856.02 67.15C862.6 64.21 869.81 62.74 877.65 62.74C885.91 62.74 893.26 64.14 899.7 66.94C906.14 69.6 911.53 73.38 915.87 78.28C920.21 83.04 923.5 88.71 925.74 95.29C927.98 101.87 929.1 109.01 929.1 116.71C929.1 117.69 929.1 118.53 929.1 119.23C928.96 120.07 928.89 120.84 928.89 121.54C928.75 122.24 928.68 123.01 928.68 123.85H851.19C851.75 128.05 852.87 131.69 854.55 134.77C856.37 137.71 858.54 140.23 861.06 142.33C863.72 144.29 866.59 145.76 869.67 146.74C872.75 147.58 875.9 148 879.12 148C885.42 148 890.6 146.6 894.66 143.8C898.86 140.86 902.15 137.22 904.53 132.88L927.42 144.22ZM902.43 104.32C902.29 102.5 901.66 100.47 900.54 98.23C899.56 95.99 898.02 93.89 895.92 91.93C893.96 89.97 891.44 88.36 888.36 87.1C885.42 85.84 881.85 85.21 877.65 85.21C871.77 85.21 866.59 86.89 862.11 90.25C857.63 93.61 854.48 98.3 852.66 104.32H902.43ZM1036.94 142.75C1032.46 151.43 1026.16 158.57 1018.04 164.17C1010.06 169.63 1000.05 172.36 988.014 172.36C980.034 172.36 972.684 171.03 965.964 168.37C959.384 165.57 953.644 161.72 948.744 156.82C943.984 151.92 940.204 146.18 937.404 139.6C934.744 132.88 933.414 125.53 933.414 117.55C933.414 109.57 934.744 102.22 937.404 95.5C940.204 88.78 943.984 83.04 948.744 78.28C953.644 73.38 959.384 69.6 965.964 66.94C972.684 64.14 980.034 62.74 988.014 62.74C999.914 62.74 1009.92 65.47 1018.04 70.93C1026.16 76.39 1032.11 83.46 1035.89 92.14L1010.69 102.64C1008.31 97.88 1005.23 94.31 1001.45 91.93C997.814 89.41 993.194 88.15 987.594 88.15C983.954 88.15 980.524 88.85 977.304 90.25C974.084 91.65 971.214 93.61 968.694 96.13C966.314 98.65 964.424 101.73 963.024 105.37C961.624 109.01 960.924 113.07 960.924 117.55C960.924 122.03 961.624 126.09 963.024 129.73C964.424 133.37 966.314 136.45 968.694 138.97C971.214 141.49 974.084 143.45 977.304 144.85C980.524 146.25 983.954 146.95 987.594 146.95C993.334 146.95 998.164 145.69 1002.08 143.17C1006.14 140.51 1009.36 136.73 1011.74 131.83L1036.94 142.75ZM1045.33 18.64H1072.84V100.54H1074.1L1108.54 66.1H1142.56V67.78L1104.34 104.95L1145.71 167.32V169H1113.16L1085.02 123.85L1072.84 135.82V169H1045.33V18.64ZM1148.29 169V18.64H1175.8V169H1148.29ZM1206.28 51.19C1203.9 51.19 1201.59 50.77 1199.35 49.93C1197.25 48.95 1195.36 47.69 1193.68 46.15C1192.14 44.47 1190.88 42.58 1189.9 40.48C1189.06 38.38 1188.64 36.07 1188.64 33.55C1188.64 31.03 1189.06 28.72 1189.9 26.62C1190.88 24.52 1192.14 22.7 1193.68 21.16C1195.36 19.48 1197.25 18.22 1199.35 17.38C1201.59 16.4 1203.9 15.91 1206.28 15.91C1211.18 15.91 1215.38 17.66 1218.88 21.16C1222.38 24.52 1224.13 28.65 1224.13 33.55C1224.13 38.45 1222.38 42.65 1218.88 46.15C1215.38 49.51 1211.18 51.19 1206.28 51.19ZM1192.63 169V66.1H1220.14V169H1192.63ZM1277.64 172.36C1270.92 172.36 1264.9 171.52 1259.58 169.84C1254.4 168.16 1249.85 165.99 1245.93 163.33C1242.15 160.53 1238.93 157.38 1236.27 153.88C1233.61 150.24 1231.58 146.6 1230.18 142.96L1254.75 132.46C1257.13 137.78 1260.28 141.77 1264.2 144.43C1268.26 146.95 1272.74 148.21 1277.64 148.21C1282.68 148.21 1286.67 147.3 1289.61 145.48C1292.55 143.66 1294.02 141.49 1294.02 138.97C1294.02 136.17 1292.76 133.93 1290.24 132.25C1287.86 130.43 1283.66 128.82 1277.64 127.42L1263.15 124.27C1259.93 123.57 1256.57 122.45 1253.07 120.91C1249.71 119.37 1246.63 117.41 1243.83 115.03C1241.03 112.65 1238.72 109.78 1236.9 106.42C1235.08 103.06 1234.17 99.14 1234.17 94.66C1234.17 89.62 1235.22 85.14 1237.32 81.22C1239.56 77.3 1242.57 74.01 1246.35 71.35C1250.13 68.55 1254.54 66.45 1259.58 65.05C1264.76 63.51 1270.29 62.74 1276.17 62.74C1285.97 62.74 1294.72 64.7 1302.42 68.62C1310.12 72.4 1315.79 78.49 1319.43 86.89L1295.7 96.55C1293.74 92.49 1290.87 89.55 1287.09 87.73C1283.31 85.91 1279.53 85 1275.75 85C1271.83 85 1268.4 85.84 1265.46 87.52C1262.52 89.06 1261.05 91.09 1261.05 93.61C1261.05 95.99 1262.24 97.88 1264.62 99.28C1267.14 100.68 1270.5 101.94 1274.7 103.06L1290.45 106.84C1300.95 109.36 1308.72 113.42 1313.76 119.02C1318.94 124.48 1321.53 130.99 1321.53 138.55C1321.53 143.03 1320.48 147.3 1318.38 151.36C1316.28 155.42 1313.27 159.06 1309.35 162.28C1305.57 165.36 1300.95 167.81 1295.49 169.63C1290.17 171.45 1284.22 172.36 1277.64 172.36ZM1340.32 89.62H1322.26V66.1H1340.32V34.6H1367.83V66.1H1393.03V89.62H1367.83V129.52C1367.83 131.9 1368.04 134.14 1368.46 136.24C1369.02 138.2 1370 139.88 1371.4 141.28C1373.36 143.52 1376.16 144.64 1379.8 144.64C1382.18 144.64 1384.07 144.43 1385.47 144.01C1386.87 143.45 1388.2 142.75 1389.46 141.91L1397.23 166.06C1394.01 167.6 1390.51 168.72 1386.73 169.42C1383.09 170.26 1379.03 170.68 1374.55 170.68C1369.37 170.68 1364.68 169.91 1360.48 168.37C1356.42 166.69 1352.99 164.45 1350.19 161.65C1343.61 155.35 1340.32 146.39 1340.32 134.77V89.62Z" fill="url(#paint1_linear)"></path>
<path d="M1421.46 170.26C1416.42 170.26 1412.08 168.51 1408.44 165.01C1404.94 161.37 1403.19 157.03 1403.19 151.99C1403.19 146.95 1404.94 142.68 1408.44 139.18C1412.08 135.68 1416.42 133.93 1421.46 133.93C1426.5 133.93 1430.77 135.68 1434.27 139.18C1437.77 142.68 1439.52 146.95 1439.52 151.99C1439.52 157.03 1437.77 161.37 1434.27 165.01C1430.77 168.51 1426.5 170.26 1421.46 170.26Z" fill="#283F6F"></path>
</g>
<path d="M151.253 226.913L79.3969 110.737C71.9381 98.6776 68.2089 92.6484 68.7043 87.6788C69.1123 83.5836 71.2139 79.8425 74.5063 77.351C78.502 74.3273 85.6189 74.3273 99.8521 74.3273H158.499L162.946 66.4732C170.367 53.3676 174.076 46.8149 171.202 41.923C168.327 37.031 160.767 37.0311 145.647 37.0313L78.365 37.0319H35.3901H26.6786C11.4438 37.0319 3.82638 37.0319 0.957991 41.9558C-1.9104 46.8796 1.87726 53.454 9.45246 66.6021L13.9031 74.3273L92.0984 203.071C99.1726 214.718 102.71 220.541 108.387 223.727C114.063 226.913 120.903 226.913 134.583 226.913H151.253Z" fill="url(#paint2_linear)"></path>
<path d="M132.961 206.917C140.615 220.267 144.442 226.941 150.209 226.941C155.975 226.941 159.802 220.267 167.456 206.917L171.586 199.713L243.392 74.466C253.679 56.5251 258.821 47.5543 257.79 38.0285C256.759 28.5028 249.814 20.8271 235.923 5.47578L234.989 4.44385L221.954 37.2865L200.576 74.5746L176.15 117.177C164.643 137.25 158.888 147.287 150.226 147.276C141.565 147.266 135.835 137.216 124.375 117.116L99.9686 74.3095L91.0216 74.3648C75.9138 74.4581 68.3601 74.505 65.516 79.4109C62.6713 84.3173 66.4134 90.8442 73.8981 103.899L128.831 199.713L132.961 206.917Z" fill="url(#paint3_linear)"></path>
<path d="M227.228 29.3274C234.512 16.2606 238.154 9.72718 235.274 4.86356C232.394 -8.82894e-05 224.884 -5.84769e-05 209.864 4.08734e-07L201.275 3.4081e-05L50.2315 3.70559e-05C39.5891 3.72652e-05 34.268 3.7523e-05 29.6466 1.93689C27.6143 2.78865 25.7052 3.90606 23.9697 5.25964C20.0233 8.33752 17.439 12.9646 12.2707 22.2186L0.953369 41.9685L4.82501 39.4997C6.46569 38.6837 8.24321 38.1749 10.0689 37.9987L17.2343 37.3069H35.4248L78.4359 37.3071L145.353 37.307C160.648 37.3069 168.296 37.3069 171.161 42.2475C174.026 47.1881 170.198 53.7735 162.54 66.9443L128.668 125.206L133.299 133.081C140.995 146.167 144.843 152.711 150.565 152.686C156.288 152.661 160.079 146.085 167.66 132.932L222.78 37.3072L227.228 29.3274Z" fill="url(#paint4_linear)"></path>
</g>
<defs>
<filter id="filter0_d" x="280.04" y="15.9099" width="1163.48" height="164.45" filterUnits="userSpaceOnUse" color-interpolation-filters="sRGB">
<feFlood flood-opacity="0" result="BackgroundImageFix"></feFlood>
<feColorMatrix in="SourceAlpha" type="matrix" values="0 0 0 0 0 0 0 0 0 0 0 0 0 0 0 0 0 0 127 0"></feColorMatrix>
<feOffset dy="4"></feOffset>
<feGaussianBlur stdDeviation="2"></feGaussianBlur>
<feColorMatrix type="matrix" values="0 0 0 0 0 0 0 0 0 0 0 0 0 0 0 0 0 0 0.05 0"></feColorMatrix>
<feBlend mode="normal" in2="BackgroundImageFix" result="effect1_dropShadow"></feBlend>
<feBlend mode="normal" in="SourceGraphic" in2="effect1_dropShadow" result="shape"></feBlend>
</filter>
<linearGradient id="paint0_linear" x1="1008" y1="-50" x2="1008" y2="240" gradientUnits="userSpaceOnUse">
<stop stop-color="white" stop-opacity="0"></stop>
<stop offset="1" stop-opacity="0.2"></stop>
</linearGradient>
<linearGradient id="paint1_linear" x1="1329" y1="-50" x2="1329" y2="240" gradientUnits="userSpaceOnUse">
<stop stop-color="white" stop-opacity="0"></stop>
<stop offset="1" stop-opacity="0.2"></stop>
</linearGradient>
<linearGradient id="paint2_linear" x1="194.932" y1="192.985" x2="-4.25752" y2="40.2028" gradientUnits="userSpaceOnUse">
<stop stop-color="#93129C"></stop>
<stop offset="0.511107" stop-color="#25173B"></stop>
<stop offset="1" stop-color="#421428"></stop>
</linearGradient>
<linearGradient id="paint3_linear" x1="65.5949" y1="84.6432" x2="252.827" y2="47.5612" gradientUnits="userSpaceOnUse">
<stop stop-color="#ED6DF6"></stop>
<stop offset="0.567676" stop-color="#6584FA"></stop>
<stop offset="1" stop-color="#46DDFB"></stop>
</linearGradient>
<linearGradient id="paint4_linear" x1="-0.776806" y1="23.6999" x2="235.783" y2="5.16533" gradientUnits="userSpaceOnUse">
<stop stop-color="#4E162E"></stop>
<stop offset="0.550366" stop-color="#302968"></stop>
<stop offset="1" stop-color="#1E5374"></stop>
</linearGradient>
<clipPath id="clip0">
<rect width="1440" height="227" fill="white"></rect>
</clipPath>
</defs>
</svg>